<mxfile host="app.diagrams.net" modified="2021-01-31T13:35:20.316Z" agent="5.0 (Windows NT 10.0; Win64; x64) AppleWebKit/537.36 (KHTML, like Gecko) Chrome/86.0.4240.198 Safari/537.36 OPR/72.0.3815.473" etag="brJwS0SrhhjEv759xkWf" version="14.1.9" type="github" pages="4">
  <diagram id="4PTbw8sbLUjb1KWMfwqf" name="Class Diagram">
    <mxGraphModel dx="1381" dy="764" grid="1" gridSize="10" guides="1" tooltips="1" connect="1" arrows="1" fold="1" page="1" pageScale="1" pageWidth="827" pageHeight="1169" math="0" shadow="0">
      <root>
        <mxCell id="0" />
        <mxCell id="1" parent="0" />
        <mxCell id="F2qi527m6DjuaYwdSW1q-1" value="Resident.cs" style="swimlane;fontStyle=0;childLayout=stackLayout;horizontal=1;startSize=26;fillColor=none;horizontalStack=0;resizeParent=1;resizeParentMax=0;resizeLast=0;collapsible=1;marginBottom=0;" vertex="1" parent="1">
          <mxGeometry x="40" y="40" width="140" height="104" as="geometry" />
        </mxCell>
        <mxCell id="F2qi527m6DjuaYwdSW1q-2" value="+ ResidentId: int" style="text;strokeColor=none;fillColor=none;align=left;verticalAlign=top;spacingLeft=4;spacingRight=4;overflow=hidden;rotatable=0;points=[[0,0.5],[1,0.5]];portConstraint=eastwest;" vertex="1" parent="F2qi527m6DjuaYwdSW1q-1">
          <mxGeometry y="26" width="140" height="26" as="geometry" />
        </mxCell>
        <mxCell id="F2qi527m6DjuaYwdSW1q-3" value="+ ResidentName: string" style="text;strokeColor=none;fillColor=none;align=left;verticalAlign=top;spacingLeft=4;spacingRight=4;overflow=hidden;rotatable=0;points=[[0,0.5],[1,0.5]];portConstraint=eastwest;" vertex="1" parent="F2qi527m6DjuaYwdSW1q-1">
          <mxGeometry y="52" width="140" height="26" as="geometry" />
        </mxCell>
        <mxCell id="F2qi527m6DjuaYwdSW1q-4" value="+ field: type" style="text;strokeColor=none;fillColor=none;align=left;verticalAlign=top;spacingLeft=4;spacingRight=4;overflow=hidden;rotatable=0;points=[[0,0.5],[1,0.5]];portConstraint=eastwest;" vertex="1" parent="F2qi527m6DjuaYwdSW1q-1">
          <mxGeometry y="78" width="140" height="26" as="geometry" />
        </mxCell>
      </root>
    </mxGraphModel>
  </diagram>
  <diagram id="eMeBmN6KOd9t_LrrzZv_" name="Deployment Diagram">
    <mxGraphModel dx="1381" dy="764" grid="1" gridSize="10" guides="1" tooltips="1" connect="1" arrows="1" fold="1" page="1" pageScale="1" pageWidth="827" pageHeight="1169" math="0" shadow="0">
      <root>
        <mxCell id="mGJx9E4KyoJxw8NdclXa-0" />
        <mxCell id="mGJx9E4KyoJxw8NdclXa-1" parent="mGJx9E4KyoJxw8NdclXa-0" />
      </root>
    </mxGraphModel>
  </diagram>
  <diagram id="QbMvmvpFSLVvXhZ_Hd5U" name="ERD">
    <mxGraphModel dx="1381" dy="764" grid="1" gridSize="10" guides="1" tooltips="1" connect="1" arrows="1" fold="1" page="1" pageScale="1" pageWidth="827" pageHeight="1169" math="0" shadow="0">
      <root>
        <mxCell id="MvNbhJJqrJI8ZufFdl4c-0" />
        <mxCell id="MvNbhJJqrJI8ZufFdl4c-1" parent="MvNbhJJqrJI8ZufFdl4c-0" />
      </root>
    </mxGraphModel>
  </diagram>
  <diagram id="CoKI6Cva_A6FC3KRDUS0" name="Activity Diagram">
    <mxGraphModel dx="1381" dy="764" grid="1" gridSize="10" guides="1" tooltips="1" connect="1" arrows="1" fold="1" page="1" pageScale="1" pageWidth="827" pageHeight="1169" math="0" shadow="0">
      <root>
        <mxCell id="FspPMz9jvyOns9fpIKPK-0" />
        <mxCell id="FspPMz9jvyOns9fpIKPK-1" parent="FspPMz9jvyOns9fpIKPK-0" />
      </root>
    </mxGraphModel>
  </diagram>
</mxfile>
